<?xml version="1.0" encoding="UTF-8" standalone="no"?>
<!DOCTYPE svg PUBLIC "-//W3C//DTD SVG 1.1//EN" "http://www.w3.org/Graphics/SVG/1.1/DTD/svg11.dtd">
<svg width="100%" height="100%" viewBox="0 0 21 21" version="1.1" xmlns="http://www.w3.org/2000/svg" xmlns:xlink="http://www.w3.org/1999/xlink" xml:space="preserve" xmlns:serif="http://www.serif.com/" style="fill-rule:evenodd;clip-rule:evenodd;stroke-linejoin:round;stroke-miterlimit:2;">
    <g transform="matrix(1,0,0,1,1.5,0)">
        <path d="M7.017,18.004C7.022,18.127 7.009,18.246 6.983,18.368C6.938,18.581 6.85,18.807 6.726,19.015C6.373,19.608 5.773,20.003 5,20.003C3.18,20.003 2.466,19.11 1.572,16.874C0.966,15.36 0.68,15.003 0,15.003L0,13.003C1.82,13.003 2.534,13.896 3.428,16.131C4.034,17.646 4.32,18.003 5,18.003C5,17.713 4.996,17.456 4.988,17.108C4.968,16.292 4.966,16.125 5.001,15.907C5.016,15.431 5.139,15.093 5.385,14.758C3.153,14.272 1.648,13.269 0.784,11.641L0.46,10.88C0.145,9.974 0,8.948 0,7.762C0,6.396 0.416,5.175 1.194,4.155C0.951,3.185 0.985,1.999 1.52,0.661L1.695,0.223L2.144,0.08C2.204,0.06 2.277,0.043 2.363,0.03C3.237,-0.108 4.48,0.22 6.106,1.261C7.064,1.039 8.073,0.927 9.089,0.927C9.997,0.927 10.9,1.018 11.762,1.199C13.343,0.208 14.552,-0.102 15.403,0.03C15.487,0.043 15.56,0.06 15.619,0.079L16.071,0.222L16.246,0.662C16.715,1.839 16.795,2.923 16.625,3.872C17.519,4.945 18,6.264 18,7.762C18,9.025 17.91,9.974 17.649,10.898L17.375,11.652C16.656,13.277 15.072,14.292 12.628,14.775C12.882,15.127 13,15.484 13,16.003L13,17.003C13,17.488 13,17.503 12.999,18.003C13.001,18.039 13.004,18.057 13.007,18.067C13.007,18.068 13,20.003 13,20.003C12.148,20.003 11.515,19.587 11.203,18.932C11.042,18.593 10.994,18.268 11,17.989L11,16.003C11,15.919 10.997,15.914 10.793,15.71C10.247,15.164 10,14.752 10,14.003L10,13.098L10.9,13.008C13.579,12.739 15.037,11.995 15.52,10.908L15.746,10.291C15.925,9.645 16,8.859 16,7.762C16,6.596 15.593,5.632 14.823,4.863L14.4,4.44L14.573,3.867C14.726,3.358 14.762,2.756 14.6,2.069C14.573,2.076 14.545,2.083 14.516,2.091C13.98,2.24 13.312,2.56 12.506,3.099L12.139,3.344L11.71,3.238C10.88,3.032 9.989,2.927 9.089,2.927C8.088,2.927 7.098,3.054 6.184,3.303L5.738,3.425L5.357,3.164C4.524,2.594 3.831,2.255 3.276,2.096C3.237,2.085 3.199,2.075 3.163,2.066C2.97,2.861 3.046,3.514 3.242,4.004L3.477,4.592L3.047,5.056C2.361,5.795 2,6.695 2,7.762C2,8.739 2.114,9.548 2.324,10.158L2.586,10.777C3.24,12.005 4.629,12.743 7.107,13.009L8,13.104L8,14.003C8,14.752 7.753,15.164 7.207,15.71C7.003,15.914 7,15.919 7,16.003L6.983,16.188C6.971,16.248 6.971,16.405 6.987,17.06C6.994,17.361 6.998,17.599 7,17.848C7.012,17.9 7.013,17.933 7.017,18.004Z"/>
    </g>
</svg>
